<?xml version="1.0" encoding="utf-8"?>
<!-- Generator: Adobe Illustrator 24.0.2, SVG Export Plug-In . SVG Version: 6.00 Build 0)  -->
<svg version="1.1" id="Layer_1" xmlns="http://www.w3.org/2000/svg" xmlns:xlink="http://www.w3.org/1999/xlink" x="0px" y="0px"
	 viewBox="0 0 256 256" style="enable-background:new 0 0 256 256;" xml:space="preserve">
<style type="text/css">
	.st0{fill-rule:evenodd;clip-rule:evenodd;fill:#333138;}
	.st1{fill-rule:evenodd;clip-rule:evenodd;fill:#FFFFFA;}
	.st2{fill-rule:evenodd;clip-rule:evenodd;fill:#2C3039;}
</style>
<path id="Fill-6" class="st0" d="M218.6,194.1c13.6-18.8,20.9-41.1,21.3-63.8l-109.1,0.1L218.6,194.1z"/>
<path id="Fill-8" class="st1" d="M160.7,21.4c-21.7-6.6-45.2-6.6-67.2,0.6L127,125.1L160.7,21.4z"/>
<path id="Fill-10" class="st1" d="M36.1,64.6c-13,18.8-19.8,40.9-19.9,63.3l107.1-0.1L36.1,64.6z"/>
<path id="Fill-12" class="st0" d="M91.5,22.4C81.4,26,71.7,31,62.6,37.6c-9.7,7.1-18,15.5-24.7,24.7l87.2,63.3L91.5,22.4z"/>
<path id="Fill-14" class="st0" d="M94,234.9c21.3,6.8,44.5,7.1,66.4,0.5L127,133.1L94,234.9z"/>
<path id="Fill-16" class="st0" d="M217.7,61.6c-14.3-19.2-33.6-32.5-54.7-39.5l-33.7,103.8L217.7,61.6z"/>
<path id="Fill-18" class="st1" d="M162.7,234.8c10.9-3.5,21.4-8.8,31.1-15.9c9.1-6.6,16.9-14.3,23.3-22.8l-87.8-63.7L162.7,234.8z"
	/>
<path id="Fill-20" class="st1" d="M38.3,195.2c14,18.8,32.7,31.9,53.4,39l33-101.9L38.3,195.2z"/>
<path id="Fill-22" class="st1" d="M239.9,127.8c-0.1-22.3-6.8-44.7-20.7-64.2l-88.4,64.3L239.9,127.8z"/>
<path id="Fill-24" class="st0" d="M16.1,130.4c0.4,21.8,7.1,43.7,20.7,62.8l86.4-62.9L16.1,130.4z"/>
<path id="Fill-26" class="st2" d="M135.4,122.9c-3.3-4.5-9.6-5.5-14.1-2.2c-4.5,3.3-5.5,9.6-2.2,14.1c3.3,4.5,9.6,5.5,14.1,2.2
	C137.7,133.7,138.7,127.4,135.4,122.9"/>
<path id="Fill-28" class="st1" d="M132,125.3c-1.9-2.6-5.6-3.2-8.3-1.3c-2.6,1.9-3.2,5.6-1.3,8.3c1.9,2.6,5.6,3.2,8.3,1.3
	C133.3,131.7,133.9,128,132,125.3"/>
</svg>
